<?xml version="1.0" encoding="UTF-8" standalone="no"?>
<svg
   xmlns:dc="http://purl.org/dc/elements/1.1/"
   xmlns:cc="http://creativecommons.org/ns#"
   xmlns:rdf="http://www.w3.org/1999/02/22-rdf-syntax-ns#"
   xmlns:svg="http://www.w3.org/2000/svg"
   xmlns="http://www.w3.org/2000/svg"
   xmlns:xlink="http://www.w3.org/1999/xlink"
   xmlns:sodipodi="http://sodipodi.sourceforge.net/DTD/sodipodi-0.dtd"
   xmlns:inkscape="http://www.inkscape.org/namespaces/inkscape"
   sodipodi:docname="AntiSymm.svg"
   inkscape:version="1.0 (4035a4fb49, 2020-05-01)"
   version="1.1"
   id="svg2"
   height="134.58235"
   width="175.64236">
  <defs
     id="defs4">
    <linearGradient
       x1="0"
       y1="0"
       x2="1"
       y2="0"
       gradientUnits="userSpaceOnUse"
       gradientTransform="matrix(4.6304016,0,0,-4.4375,280.494,391.922)"
       spreadMethod="pad"
       id="linearGradient8991">
      <stop
         style="stop-opacity:1;stop-color:#918f8f"
         offset="0"
         id="stop8993" />
      <stop
         style="stop-opacity:1;stop-color:#d3d2d2"
         offset="0.28"
         id="stop8995" />
      <stop
         style="stop-opacity:1;stop-color:#4f4c4d"
         offset="0.76"
         id="stop8997" />
      <stop
         style="stop-opacity:1;stop-color:#918f8f"
         offset="1"
         id="stop8999" />
    </linearGradient>
    <linearGradient
       x1="0"
       y1="0"
       x2="1"
       y2="0"
       gradientUnits="userSpaceOnUse"
       gradientTransform="matrix(4.6304016,0,0,-4.8135071,280.494,392.298)"
       spreadMethod="pad"
       id="linearGradient8963">
      <stop
         style="stop-opacity:1;stop-color:#bdbbbc"
         offset="0"
         id="stop8965" />
      <stop
         style="stop-opacity:1;stop-color:#fcfcfc"
         offset="0.28"
         id="stop8967" />
      <stop
         style="stop-opacity:1;stop-color:#918f8f"
         offset="0.76"
         id="stop8969" />
      <stop
         style="stop-opacity:1;stop-color:#d3d2d2"
         offset="1"
         id="stop8971" />
    </linearGradient>
    <linearGradient
       x1="0"
       y1="0"
       x2="1"
       y2="0"
       gradientUnits="userSpaceOnUse"
       gradientTransform="matrix(4.6304016,0,0,-4.8486023,280.494,396.19299)"
       spreadMethod="pad"
       id="linearGradient8791">
      <stop
         style="stop-opacity:1;stop-color:#bdbbbc"
         offset="0"
         id="stop8793" />
      <stop
         style="stop-opacity:1;stop-color:#fcfcfc"
         offset="0.28"
         id="stop8795" />
      <stop
         style="stop-opacity:1;stop-color:#918f8f"
         offset="0.76"
         id="stop8797" />
      <stop
         style="stop-opacity:1;stop-color:#d3d2d2"
         offset="1"
         id="stop8799" />
    </linearGradient>
    <linearGradient
       x1="0"
       y1="0"
       x2="1"
       y2="0"
       gradientUnits="userSpaceOnUse"
       gradientTransform="matrix(4.6304016,0,0,-4.8368988,280.494,396.577)"
       spreadMethod="pad"
       id="linearGradient8403">
      <stop
         style="stop-opacity:1;stop-color:#918f8f"
         offset="0"
         id="stop8405" />
      <stop
         style="stop-opacity:1;stop-color:#d3d2d2"
         offset="0.28"
         id="stop8407" />
      <stop
         style="stop-opacity:1;stop-color:#4f4c4d"
         offset="0.76"
         id="stop8409" />
      <stop
         style="stop-opacity:1;stop-color:#918f8f"
         offset="1"
         id="stop8411" />
    </linearGradient>
    <linearGradient
       y2="0"
       x2="1"
       y1="0"
       x1="0"
       spreadMethod="pad"
       gradientTransform="matrix(5.788002,0,0,6.0461235,314.9925,548.23845)"
       gradientUnits="userSpaceOnUse"
       id="linearGradient11768"
       xlink:href="#linearGradient8403"
       inkscape:collect="always" />
    <linearGradient
       y2="0"
       x2="1"
       y1="0"
       x1="0"
       spreadMethod="pad"
       gradientTransform="matrix(5.788002,0,0,6.0607529,314.9925,547.74596)"
       gradientUnits="userSpaceOnUse"
       id="linearGradient11770"
       xlink:href="#linearGradient8791"
       inkscape:collect="always" />
    <linearGradient
       y2="0"
       x2="1"
       y1="0"
       x1="0"
       spreadMethod="pad"
       gradientTransform="matrix(5.788002,0,0,6.0168839,314.9925,550.6147)"
       gradientUnits="userSpaceOnUse"
       id="linearGradient11772"
       xlink:href="#linearGradient8963"
       inkscape:collect="always" />
    <linearGradient
       y2="0"
       x2="1"
       y1="0"
       x1="0"
       spreadMethod="pad"
       gradientTransform="matrix(5.788002,0,0,5.546875,314.9925,551.0847)"
       gradientUnits="userSpaceOnUse"
       id="linearGradient11774"
       xlink:href="#linearGradient8991"
       inkscape:collect="always" />
  </defs>
  <sodipodi:namedview
     inkscape:document-rotation="0"
     inkscape:snap-grids="false"
     inkscape:guide-bbox="true"
     showguides="false"
     inkscape:snap-smooth-nodes="true"
     inkscape:object-nodes="true"
     inkscape:snap-intersection-paths="true"
     inkscape:object-paths="true"
     inkscape:snap-global="true"
     fit-margin-bottom="0"
     fit-margin-right="0"
     fit-margin-left="0"
     fit-margin-top="0"
     inkscape:window-maximized="1"
     inkscape:window-y="-8"
     inkscape:window-x="-8"
     inkscape:window-height="1017"
     inkscape:window-width="1920"
     showgrid="false"
     inkscape:current-layer="g11306"
     inkscape:document-units="px"
     inkscape:cy="67.29117"
     inkscape:cx="83.554529"
     inkscape:zoom="4.1015778"
     inkscape:pageshadow="2"
     inkscape:pageopacity="0.0"
     borderopacity="1.0"
     bordercolor="#666666"
     pagecolor="#ffffff"
     id="base">
    <sodipodi:guide
       id="guide6453"
       orientation="0,1"
       position="127.35244,90.166029" />
  </sodipodi:namedview>
  <metadata
     id="metadata7">
    <rdf:RDF>
      <cc:Work
         rdf:about="">
        <dc:format>image/svg+xml</dc:format>
        <dc:type
           rdf:resource="http://purl.org/dc/dcmitype/StillImage" />
        <dc:title />
      </cc:Work>
    </rdf:RDF>
  </metadata>
  <g
     transform="translate(-214.00632,-509.10461)"
     id="layer1"
     inkscape:groupmode="layer"
     inkscape:label="Layer 1">
    <use
       height="100%"
       width="100%"
       transform="matrix(-1,0,0,-1,635.05872,1162.1461)"
       id="use9450"
       xlink:href="#g9271"
       y="0"
       x="0" />
    <use
       x="0"
       y="0"
       xlink:href="#g9271"
       id="use9448"
       transform="matrix(-1,0,0,-1,603.99247,1162.1461)"
       width="100%"
       height="100%" />
    <g
       id="g11306">
      <g
         id="g9271"
         transform="translate(-1.652e-5,-4.0543e-4)">
        <g
           id="g11379">
          <g
             transform="translate(0,-8)"
             id="g9398">
            <g
               id="g9390">
              <path
                 inkscape:connector-curvature="0"
                 d="m 319.9275,551.21845 0.48875,-0.48 -5.78875,0.5675 0.515,0.47875 4.785,-0.56625"
                 style="fill:url(#linearGradient11768);stroke:none"
                 id="path8413" />
              <path
                 inkscape:connector-curvature="0"
                 d="m 315.1425,550.8122 -0.515,0.495 5.78875,-0.56875 -0.48875,-0.4925 -4.785,0.56625"
                 style="fill:url(#linearGradient11770);stroke:none"
                 id="path8801" />
            </g>
            <path
               id="path8973"
               style="fill:url(#linearGradient11772);stroke:none"
               d="m 315.1425,553.6822 -0.515,0.45 5.78875,-0.5475 -0.48875,-0.47 -4.785,0.5675"
               inkscape:connector-curvature="0" />
            <path
               id="path9001"
               style="fill:url(#linearGradient11774);stroke:none"
               d="m 314.6275,554.1322 5.78875,-0.5475 -0.425,0.5475 -5.36375,0"
               inkscape:connector-curvature="0" />
            <use
               x="0"
               y="0"
               xlink:href="#g9390"
               id="use9394"
               transform="translate(0,0.9725)"
               width="100%"
               height="100%" />
            <use
               height="100%"
               width="100%"
               transform="translate(0,1.945)"
               id="use9396"
               xlink:href="#g9390"
               y="0"
               x="0" />
            <use
               height="100%"
               width="100%"
               transform="translate(0,-0.9725)"
               id="use9432"
               xlink:href="#g9390"
               y="0"
               x="0" />
          </g>
          <path
             id="path9081"
             style="fill:none;stroke:#000000;stroke-width:0.3125;stroke-linecap:butt;stroke-linejoin:round;stroke-miterlimit:4;stroke-dasharray:none;stroke-opacity:1"
             d="m 320.43125,539.76595 -0.48875,0.48 0.48875,0.4925 -0.48875,0.495 0.48875,0.47375 -0.48875,0.4725 0.48875,0.49375 -0.48875,0.495 0.48875,0.48 -0.48875,0.4775 0.48875,0.495 -0.48875,0.49375 0.48875,0.47 -0.425,0.5475 -5.36375,0 0.515,-0.45 -0.515,-0.49375 0.515,-0.495 -0.515,-0.4775 0.515,-0.48 -0.515,-0.495 0.515,-0.49375 -0.515,-0.47375 0.515,-0.4725 -0.515,-0.49375 0.515,-0.495 -0.515,-0.47875 0.515,-0.47875"
             inkscape:connector-curvature="0" />
          <path
             id="path9089"
             style="fill:#ffffff;stroke:#000000;stroke-width:0.5625;stroke-linecap:round;stroke-linejoin:round;stroke-miterlimit:4;stroke-dasharray:none;stroke-opacity:1"
             d="m 323.1525,536.78095 0,4.25125 c 0.0738,0.7375 -0.96875,1.3175 -1.32625,1.31 -0.35625,0.007 -1.39625,-0.5725 -1.325,-1.31 l 0,-4.25125 2.65125,0 z"
             inkscape:connector-curvature="0" />
          <path
             id="path9097"
             style="fill:#ffffff;stroke:#000000;stroke-width:0.5625;stroke-linecap:round;stroke-linejoin:round;stroke-miterlimit:4;stroke-dasharray:none;stroke-opacity:1"
             d="m 314.5575,536.78095 0,4.25125 c 0.0738,0.7375 -0.96875,1.3175 -1.32625,1.31 -0.35625,0.007 -1.39875,-0.5725 -1.325,-1.31 l 0,-4.25125 2.65125,0 z"
             inkscape:connector-curvature="0" />
          <path
             id="path9105"
             style="fill:#ffffff;stroke:#000000;stroke-width:0.5625;stroke-linecap:butt;stroke-linejoin:round;stroke-miterlimit:4;stroke-dasharray:none;stroke-opacity:1"
             d="m 314.59125,536.78095 0,4.25125 c -0.0713,0.7375 0.97125,1.3175 1.32625,1.31 l 3.225,0 c 0.35625,0.007 1.39625,-0.5725 1.3225,-1.31 l 0,-4.25125 -5.87375,0 z"
             inkscape:connector-curvature="0" />
          <path
             id="path9113"
             style="fill:#ffffff;stroke:#000000;stroke-width:0.5625;stroke-linecap:round;stroke-linejoin:round;stroke-miterlimit:4;stroke-dasharray:none;stroke-opacity:1"
             d="m 314.59125,540.4072 c -0.0713,0.7375 0.97125,1.94375 1.32625,1.935 l -2.68625,0 c 0.35625,0.009 1.39875,-1.1975 1.32625,-1.935 l 0.0337,0 z"
             inkscape:connector-curvature="0" />
          <path
             id="path9121"
             style="fill:#ffffff;stroke:#000000;stroke-width:0.5625;stroke-linecap:round;stroke-linejoin:round;stroke-miterlimit:4;stroke-dasharray:none;stroke-opacity:1"
             d="m 320.46499,540.4072 c -0.0713,0.7375 0.97125,1.94375 1.325,1.935 l -2.685,0 c 0.35625,0.009 1.39875,-1.1975 1.32625,-1.935 l 0.0337,0 z"
             inkscape:connector-curvature="0" />
        </g>
        <g
           id="g11372">
          <path
             id="path9129"
             style="fill:#ffffff;stroke:#000000;stroke-width:0.5625;stroke-linecap:round;stroke-linejoin:round;stroke-miterlimit:4;stroke-dasharray:none;stroke-opacity:1"
             d="m 311.90624,524.3022 0,-4.25125 c -0.0738,-0.7375 0.96875,-1.31875 1.32625,-1.31 0.355,-0.009 1.39625,0.5725 1.32375,1.31 l 0,4.25125 -2.65,0 z"
             inkscape:connector-curvature="0" />
          <path
             id="path9137"
             style="fill:#ffffff;stroke:#000000;stroke-width:0.5625;stroke-linecap:round;stroke-linejoin:round;stroke-miterlimit:4;stroke-dasharray:none;stroke-opacity:1"
             d="m 320.50125,524.3022 0,-4.25125 c -0.0725,-0.7375 0.96875,-1.31875 1.32875,-1.31 0.35625,-0.009 1.39625,0.5725 1.3225,1.31 l 0,4.25125 -2.65125,0 z"
             inkscape:connector-curvature="0" />
          <path
             id="path9145"
             style="fill:#ffffff;stroke:#000000;stroke-width:0.5625;stroke-linecap:butt;stroke-linejoin:round;stroke-miterlimit:4;stroke-dasharray:none;stroke-opacity:1"
             d="m 320.46749,524.3022 0,-4.25125 c 0.0725,-0.7375 -0.97,-1.31875 -1.325,-1.31 l -3.225,0 c -0.35625,-0.009 -1.3975,0.5725 -1.32375,1.31 l 0,4.25125 5.87375,0 z"
             inkscape:connector-curvature="0" />
          <path
             id="path9153"
             style="fill:#ffffff;stroke:#000000;stroke-width:0.5625;stroke-linecap:round;stroke-linejoin:round;stroke-miterlimit:4;stroke-dasharray:none;stroke-opacity:1"
             d="m 320.46749,520.67719 c 0.0725,-0.7375 -0.97,-1.94375 -1.325,-1.935 l 2.6875,0 c -0.35875,-0.009 -1.4,1.1975 -1.32875,1.935 l -0.0337,0 z"
             inkscape:connector-curvature="0" />
          <path
             id="path9161"
             style="fill:#ffffff;stroke:#000000;stroke-width:0.5625;stroke-linecap:round;stroke-linejoin:round;stroke-miterlimit:4;stroke-dasharray:none;stroke-opacity:1"
             d="m 314.59375,520.67719 c 0.0725,-0.7375 -0.97,-1.94375 -1.32625,-1.935 l 2.6875,0 c -0.3575,-0.009 -1.39875,1.1975 -1.3275,1.935 l -0.0337,0 z"
             inkscape:connector-curvature="0" />
        </g>
      </g>
      <g
         style="fill:#e6e6e6"
         id="path18526">
        <g
           style="fill:#e6e6e6"
           transform="matrix(0,1,-1,0,874.46127,188.26093)"
           id="g11580">
          <use
             style="fill:#e6e6e6"
             transform="translate(35.529994,1.9724602)"
             x="0"
             y="0"
             xlink:href="#g11379"
             id="use11396"
             width="100%"
             height="100%" />
          <use
             style="fill:#e6e6e6"
             transform="translate(35.529994,4.989312)"
             x="0"
             y="0"
             xlink:href="#g11372"
             id="use11398"
             width="100%"
             height="100%" />
        </g>
        <path
           sodipodi:nodetypes="ccsccscc"
           inkscape:connector-curvature="0"
           d="m 341.35874,524.30183 48.00855,-6.5e-4 c 0.0371,2.42654 -2.52583,3.8314 -4.14601,3.8314 l -36.26838,0 c -2.38575,0 -3.65648,0.98763 -3.78036,3.23851 l -0.011,17.1055 c -6.8e-4,1.0566 -0.45195,7.88917 -3.8032,7.88917 z"
           style="fill:#e6e6e6;stroke:#000000;stroke-width:0.56199998;stroke-linecap:butt;stroke-linejoin:miter;stroke-miterlimit:4;stroke-dasharray:none;stroke-opacity:1"
           id="path185261" />
      </g>
      <path
         id="path10033"
         style="fill:#e6e6e6;stroke:#000000;stroke-width:0.5625;stroke-linecap:butt;stroke-linejoin:miter;stroke-miterlimit:4;stroke-dasharray:none;stroke-opacity:1"
         d="m 328.07749,531.33304 c 2.86125,0 5.68125,1.04125 6.40625,6.40625 0.78125,5.78125 0.625,13.4375 6.875,15.78125 0,-4.0625 0,-29.21875 0,-29.21875 l -79.0625,0 c 0,0 0,25.15625 0,29.21875 6.25,-2.34375 6.09375,-10 6.875,-15.78125 0.725,-5.365 3.54625,-6.40625 6.40625,-6.40625 l 52.5,0 z"
         inkscape:connector-curvature="0" />
      <use
         x="0"
         y="0"
         xlink:href="#g9271"
         id="use9446"
         transform="translate(-31.06624,0)"
         width="100%"
         height="100%" />
    </g>
    <text
       id="text7334-3"
       y="583.11017"
       x="307.04767"
       style="font-style:normal;font-weight:normal;line-height:0%;font-family:'Times New Roman';-inkscape-font-specification:Sans;letter-spacing:0px;word-spacing:0px;fill:#000000;fill-opacity:1;stroke:none"
       xml:space="preserve"><tspan
         style="font-size:10px;line-height:1.25"
         y="583.11017"
         x="307.04767"
         id="tspan7336-6"
         sodipodi:role="line">S250×37.8</tspan></text>
    <text
       xml:space="preserve"
       style="font-style:normal;font-weight:normal;line-height:0%;font-family:'Times New Roman';-inkscape-font-specification:Sans;letter-spacing:0px;word-spacing:0px;fill:#000000;fill-opacity:1;stroke:none"
       x="278.82144"
       y="515.87708"
       id="text7338-1"><tspan
         sodipodi:role="line"
         id="tspan7340-2"
         x="278.82144"
         y="515.87708"
         style="font-size:10px;line-height:1.25">C200×20.5</tspan></text>
    <use
       height="100%"
       width="100%"
       transform="matrix(-1,0,0,-1,603.655,1162.1461)"
       id="use11311"
       xlink:href="#g11306"
       y="0"
       x="0" />
    <path
       inkscape:connector-curvature="0"
       d="m 305.00498,613.46929 c 0,7.8125 3.4375,9.6875 6.875,10.3125 3.4375,0.625 5.78125,0.3125 10,0.78125 4.21875,0.46875 4.0625,4.53125 4.0625,6.25 l -48.33375,0 c 0,-1.71875 -0.15625,-5.78125 4.0625,-6.25 4.21875,-0.46875 6.5625,-0.15625 10,-0.78125 3.4375,-0.625 6.875,-2.5 6.875,-10.3125 l 0,-64.7925 c 0,-7.8125 -3.4375,-9.6875 -6.875,-10.3125 -3.4375,-0.625 -5.78125,-0.3125 -10,-0.78125 -4.21875,-0.46875 -4.0625,-4.53125 -4.0625,-6.25 l 48.33375,0 c 0,1.71875 0.15625,5.78125 -4.0625,6.25 -4.21875,0.46875 -6.5625,0.15625 -10,0.78125 -3.4375,0.625 -6.875,2.5 -6.875,10.3125 l 0,64.7925 z"
       style="fill:#e6e6e6;stroke:#000000;stroke-width:0.5625;stroke-linecap:butt;stroke-linejoin:miter;stroke-miterlimit:4;stroke-dasharray:none;stroke-opacity:1"
       id="path10073" />
    <text
       id="text11764"
       y="522.22974"
       x="214.35368"
       style="font-style:normal;font-weight:normal;line-height:0%;font-family:'Times New Roman';-inkscape-font-specification:Sans;letter-spacing:0px;word-spacing:0px;fill:#000000;fill-opacity:1;stroke:none"
       xml:space="preserve"><tspan
         style="font-size:10px;line-height:1.25"
         y="522.22974"
         x="214.35368"
         id="tspan11766"
         sodipodi:role="line">L76×51×12.7</tspan></text>
  </g>
</svg>
